<svg xmlns="http://www.w3.org/2000/svg" version="1.1" xmlns:xlink="http://www.w3.org/1999/xlink" xmlns:svgjs="http://svgjs.dev/svgjs" width="100%" height="100%" viewBox="0 0 1000 600"><rect width="1000" height="600" x="0" y="0" fill="#e7d045"/><g><circle r="166.66666666666666" cx="383.4004770914713" cy="405.62267109000186" fill="#a04ef6" transform="matrix(0.5767444689698521,0,0,0.5767444689698521,0,66.05937764170926)"/><path d="M359.31394562036337 413.6995979807518L359.31394562036337 480.6226749038287L341.7754840819018 480.6226749038287L341.7754840819018 330.6226749038287L425.0254840819018 330.6226749038287L424.304330235748 346.14190567305945L359.31394562036337 346.14190567305945L359.31394562036337 398.7861364422902L421.2754840819018 398.7861364422902L421.2754840819018 413.6995979807518L359.31394562036337 413.6995979807518Z " fill="#e7d045" transform="matrix(0.5767444689698521,0,0,0.5767444689698521,0,66.05937764170926)"/><path d="M650.4791352706261 413.1788527487248L650.4791352706261 478.34739021240836L633.4004840732471 478.34739021240836L633.4004840732471 332.2799786558762L714.4678974871224 332.2799786558762L713.7656503161775 347.39233777460976L650.4791352706261 347.39233777460976L650.4791352706261 398.656381253585L710.8162121982091 398.656381253585L710.8162121982091 413.1788527487248L650.4791352706261 413.1788527487248ZM762.0802556771844 467.2799747983173L762.0802556771844 467.2799747983173Q773.8218283753824 467.2799747983173 782.7544123898011 460.81930082562457Q791.6869964042198 454.35862685293176 794.271265993297 443.3754810993541L794.271265993297 443.3754810993541L794.271265993297 425.1170546547875Q793.7656480302167 425.1170546547875 788.2881200968467 425.62267261786786Q782.8105921634767 426.10020069411036 781.1251989532091 426.2125602414615L781.1251989532091 426.2125602414615Q759.6926152959718 428.09458265959375 751.2656492446333 433.2069420640724Q742.8105933064571 438.3473913553888 742.8105933064571 449.6957056378579L742.8105933064571 449.6957056378579Q742.8105933064571 458.4035705575742 747.9510425977736 462.84177267794576Q753.09149188909 467.2799747983173 762.0802556771844 467.2799747983173ZM810.7600295670825 478.34739021240836L797.9229512822103 478.34739021240836Q796.4341872798071 472.02716567390456 795.0577828247552 464.723795096078L795.0577828247552 464.723795096078Q786.0690190366608 473.71255888417227 778.1757608352407 477.16761496522105Q770.2544127469826 480.6226710462698 759.6083456354584 480.6226710462698L759.6083456354584 480.6226710462698Q744.3836269693737 480.6226710462698 735.170144086577 472.67323307117385Q725.9285713169426 464.723795096078 725.9285713169426 449.80806518520905L725.9285713169426 449.80806518520905Q725.9285713169426 433.2069420640724 738.5128406202746 425.22941420213874Q751.0971099236066 417.22379645336724 774.8049744147053 415.25750437472163L774.8049744147053 415.25750437472163Q778.0634012878894 414.9485156195059 784.6364348079334 414.41480776958775Q791.2094683279773 413.8530100328319 794.4678952011616 413.57211116445393L794.4678952011616 413.57211116445393L794.4678952011616 403.99345975276594Q794.4678952011616 392.5327859229457 789.1308167019805 386.99907821590017Q783.7937382027995 381.4653705088546 772.3330643729794 381.4653705088546L772.3330643729794 381.4653705088546Q756.3499187622742 381.4653705088546 740.0577843963533 389.35862871027496L740.0577843963533 389.35862871027496Q739.552166433273 388.1788534630876 737.4735148072762 382.50469632185303Q735.3948631812793 376.83053918061853 735.310593520766 376.633909972754L735.310593520766 376.633909972754Q742.5016045512414 372.58896626811156 752.4454244918207 370.1732360000612Q762.3611545455623 367.72941584517304 772.6420531281951 367.72941584517304L772.6420531281951 367.72941584517304Q792.8667716514072 367.72941584517304 801.8274455526637 376.5777301990784Q810.7600295670825 385.4260445529837 810.7600295670825 406.6619990023565L810.7600295670825 406.6619990023565L810.7600295670825 478.34739021240836ZM884.9173308188603 478.34739021240836L866.9398032426717 478.34739021240836L824.9735123070066 370.00469667903445L842.6420511279794 370.00469667903445L866.5465448269426 434.41480719809755Q866.5465448269426 434.41480719809755 876.4341849938463 461.8586266386229L876.4341849938463 461.8586266386229Q879.7768815275439 451.29682918761216 885.7038476503185 434.61143640596214L885.7038476503185 434.61143640596214Q893.2038474360097 413.57211116445393 909.018453725688 370.00469667903445L909.018453725688 370.00469667903445L926.6027228861476 370.00469667903445L884.9173308188603 478.34739021240836ZM943.8780032913912 370.00469667903445L960.4510365256901 370.00469667903445L960.4510365256901 478.34739021240836L943.8780032913912 478.34739021240836L943.8780032913912 370.00469667903445ZM943.8780032913912 330.6226753324463L960.4510365256901 330.6226753324463L960.4510365256901 350.1732365715514L943.8780032913912 350.1732365715514L943.8780032913912 330.6226753324463ZM1037.3049669138964 480.6226710462698L1037.3049669138964 480.6226710462698Q1013.4004732149331 480.6226710462698 999.9173275327915 465.1170535118071Q986.4341818506502 449.61143597734446 986.4341818506502 424.52716703119387L986.4341818506502 424.52716703119387Q986.5465413980013 399.2462688771787 1000.2263162880074 383.48784236117586Q1013.8780012911755 367.72941584517304 1037.6982253296255 367.72941584517304L1037.6982253296255 367.72941584517304Q1046.097101494126 367.72941584517304 1053.9341799218707 369.80806747116986Q1061.7993482364532 371.8867190971667 1066.3218200173383 375.25750551770204L1066.3218200173383 375.25750551770204L1061.7993482364532 388.09458380257416Q1050.2263148592817 381.8586289245838 1037.3892365744096 381.8586289245838L1037.3892365744096 381.8586289245838Q1021.6869898320824 381.8586289245838 1012.5577766097992 393.31930275440396Q1003.4285633875159 404.77997658422424 1003.4285633875159 424.61143669170724L1003.4285633875159 424.61143669170724Q1003.4285633875159 443.99345860978553 1012.445417062448 455.285593118579Q1021.4903606242178 466.60581751421023 1037.5015961217607 466.60581751421023L1037.5015961217607 466.60581751421023Q1050.2263148592817 466.60581751421023 1063.5690111072342 459.6957053521127L1063.5690111072342 459.6957053521127L1065.647662733231 472.8136825053628Q1054.861146187518 480.6226710462698 1037.3049669138964 480.6226710462698ZM1099.1027179570444 424.41480748384265L1099.1027179570444 424.41480748384265Q1099.1027179570444 443.6844698545698 1107.6701334425718 455.285593118579Q1116.2094590412614 466.8867163825882 1132.5858630676958 466.8867163825882L1132.5858630676958 466.8867163825882Q1148.793727773103 466.8867163825882 1157.024064616577 455.3417728922546Q1165.2824913468885 443.796829401921 1165.2824913468885 424.2181782759781L1165.2824913468885 424.2181782759781Q1165.2824913468885 404.38671816849507 1157.136424163928 392.9822241123505Q1148.9903569809676 381.57773005620584 1132.3049641993177 381.57773005620584L1132.3049641993177 381.57773005620584Q1116.0970994939103 381.57773005620584 1107.613953668896 393.2350330938906Q1099.1027179570444 404.8642462447376 1099.1027179570444 424.41480748384265ZM1182.3611425442678 424.1339086154647L1182.3611425442678 424.1339086154647Q1182.3611425442678 449.3024472221287 1168.934176635802 464.9766040776181Q1155.5072107273363 480.6226710462698 1131.7993462362374 480.6226710462698L1131.7993462362374 480.6226710462698Q1108.9903581239482 480.6226710462698 1095.5072124418068 464.80806475659136Q1082.0240667596654 449.0215483537508 1082.0240667596654 424.2181782759781L1082.0240667596654 424.2181782759781Q1082.0240667596654 398.93728012196294 1095.5633922154823 383.3473929269869Q1109.0746277844617 367.72941584517304 1132.698222615047 367.72941584517304L1132.698222615047 367.72941584517304Q1155.9004691430653 367.72941584517304 1169.1308058436666 383.4035727006625Q1182.3611425442678 399.0496396693141 1182.3611425442678 424.1339086154647ZM1222.3611414012873 478.34739021240836L1205.6757486196375 478.34739021240836L1205.6757486196375 370.00469667903445L1219.4959729438324 370.00469667903445L1221.5746245698292 385.5103142134971Q1227.9791187688463 377.5327863515634 1237.61394995421 372.64514604178714Q1247.2487811395736 367.72941584517304 1258.4004662141779 367.72941584517304L1258.4004662141779 367.72941584517304Q1277.1645106218248 367.72941584517304 1286.153274409919 378.26312340934606Q1295.1420381980133 388.76874108668125 1295.1420381980133 410.5945831596477L1295.1420381980133 410.5945831596477L1295.1420381980133 478.34739021240836L1278.6532746242278 478.34739021240836Q1278.6532746242278 413.1788527487248 1278.5409150768767 408.51593153365087L1278.5409150768767 408.51593153365087Q1278.1476566611475 394.6957072094559 1272.9791174829934 388.29121301043875Q1267.7824884180013 381.8586289245838 1255.647657304074 381.8586289245838L1255.647657304074 381.8586289245838Q1242.8948486797153 381.8586289245838 1234.4117028547012 387.982224255223Q1225.9004671428495 394.10581958586226 1223.34428744061 403.8811002054148L1223.34428744061 403.8811002054148Q1222.3611414012873 410.5103134991343 1222.3611414012873 419.1058188714995L1222.3611414012873 419.1058188714995L1222.3611414012873 478.34739021240836ZM1334.2431606762234 479.5271654595958L1334.2431606762234 479.5271654595958Q1328.1195653455843 479.5271654595958 1324.60832949086 475.6226711891423Q1321.1251835229732 471.71817691868887 1321.1251835229732 466.493457966859L1321.1251835229732 466.493457966859Q1321.1251835229732 461.15637946767805 1324.5802396040222 457.3080649709002Q1328.0352956850709 453.45975047412236 1334.2431606762234 453.45975047412236Q1340.4791155542139 453.45975047412236 1343.9341716352626 457.3080649709002Q1347.3892277163113 461.15637946767805 1347.3892277163113 466.493457966859Q1347.3892277163113 471.83053646604003 1343.9341716352626 475.6788509628179Q1340.4791155542139 479.5271654595958 1334.2431606762234 479.5271654595958ZM1374.2431595332432 370.00469667903445L1390.8442826543796 370.00469667903445L1390.8442826543796 478.34739021240836L1374.2431595332432 478.34739021240836L1374.2431595332432 370.00469667903445ZM1374.2431595332432 330.6226753324463L1390.8442826543796 330.6226753324463L1390.8442826543796 350.1732365715514L1374.2431595332432 350.1732365715514L1374.2431595332432 330.6226753324463ZM1433.877989289881 424.41480748384265L1433.877989289881 424.41480748384265Q1433.877989289881 443.6844698545698 1442.4173148885707 455.285593118579Q1450.984730374098 466.8867163825882 1467.3611344005321 466.8867163825882L1467.3611344005321 466.8867163825882Q1483.5689991059396 466.8867163825882 1491.7993359494135 455.3417728922546Q1500.057762679725 443.796829401921 1500.057762679725 424.2181782759781L1500.057762679725 424.2181782759781Q1500.057762679725 404.38671816849507 1491.9116954967649 392.9822241123505Q1483.7656283138044 381.57773005620584 1467.0802355321543 381.57773005620584L1467.0802355321543 381.57773005620584Q1450.8723708267466 381.57773005620584 1442.389225001733 393.2350330938906Q1433.877989289881 404.8642462447376 1433.877989289881 424.41480748384265ZM1517.1364138771044 424.1339086154647L1517.1364138771044 424.1339086154647Q1517.1364138771044 449.3024472221287 1503.7094479686384 464.9766040776181Q1490.2824820601727 480.6226710462698 1466.574617569074 480.6226710462698L1466.574617569074 480.6226710462698Q1443.7656294567848 480.6226710462698 1430.2824837746434 464.80806475659136Q1416.7993380925018 449.0215483537508 1416.7993380925018 424.2181782759781L1416.7993380925018 424.2181782759781Q1416.7993380925018 398.93728012196294 1430.338663548319 383.3473929269869Q1443.8498991172983 367.72941584517304 1467.4734939478835 367.72941584517304L1467.4734939478835 367.72941584517304Q1490.6757404759019 367.72941584517304 1503.906077176503 383.4035727006625Q1517.1364138771044 399.0496396693141 1517.1364138771044 424.1339086154647Z " fill="#a04ef6" transform="matrix(0.5767444689698521,0,0,0.5767444689698521,0,66.05937764170926)"/></g></svg>